<svg width="20" height="20" viewBox="0 0 20 20" fill="none" xmlns="http://www.w3.org/2000/svg">
<path d="M14.1406 0H5.85938C2.62333 0 0 2.62333 0 5.85938V14.1406C0 17.3767 2.62333 20 5.85938 20H14.1406C17.3767 20 20 17.3767 20 14.1406V5.85938C20 2.62333 17.3767 0 14.1406 0Z" fill="white"/>
<path d="M4.6137 10.875L9.3094 15.5707C9.69065 15.9519 10.309 15.9519 10.6906 15.5707L15.3864 10.875C15.7676 10.4937 15.7676 9.87537 15.3864 9.49373C15.0051 9.11248 14.3867 9.11248 14.0051 9.49373L10.9766 12.5222V5.11951C10.9766 4.58005 10.5395 4.14294 10 4.14294C9.46057 4.14294 9.02346 4.58005 9.02346 5.11951V12.5222L5.99495 9.49373C5.6137 9.11248 4.99534 9.11248 4.6137 9.49373C4.23245 9.87498 4.23245 10.4933 4.6137 10.875Z" fill="#2492FF"/>
</svg>
