<svg width="20" height="20" viewBox="0 0 20 20" fill="none" xmlns="http://www.w3.org/2000/svg">
<path d="M10.7746 9.67465L13.5631 11.7661C13.9055 12.0225 13.9752 12.5081 13.718 12.8498C13.5662 13.0543 13.3338 13.1604 13.0975 13.1604C12.9357 13.1604 12.773 13.11 12.6336 13.0055L9.5352 10.6817C9.34 10.5361 9.22535 10.306 9.22535 10.062V5.41441C9.22535 4.98606 9.5716 4.63981 9.99996 4.63981C10.4283 4.63981 10.7746 4.98606 10.7746 5.41441V9.67465Z" fill="#C0C0C0"/>
<path fill-rule="evenodd" clip-rule="evenodd" d="M0 10C0 4.48567 4.48566 0 10 0C15.5143 0 20 4.48567 20 10C20 15.5143 15.5143 20 10 20C4.48566 20 0 15.5143 0 10ZM1.54918 10C1.54918 14.6592 5.34082 18.4508 10 18.4508C14.6592 18.4508 18.4508 14.6592 18.4508 10C18.4508 5.34082 14.66 1.54918 10 1.54918C5.34082 1.54918 1.54918 5.34082 1.54918 10Z" fill="#C0C0C0"/>
</svg>
