<svg width="24" height="24" viewBox="0 0 24 24" fill="none" xmlns="http://www.w3.org/2000/svg">
<path d="M0.40038 0.40038C-0.13344 0.934201 -0.13348 1.79979 0.40038 2.33365L10.0667 12L0.40038 21.6664C-0.13344 22.2002 -0.13348 23.0658 0.40038 23.5996C0.93424 24.1335 1.79983 24.1334 2.33365 23.5996L12 13.9333L21.6664 23.5996C22.2002 24.1335 23.0658 24.1334 23.5996 23.5996C24.1334 23.0658 24.1335 22.2002 23.5996 21.6664L13.9333 12L23.5996 2.33365C24.1334 1.79983 24.1335 0.93424 23.5996 0.40038C23.0658 -0.13348 22.2002 -0.13344 21.6664 0.40038L12 10.0667L2.33365 0.40038C1.79979 -0.13348 0.934201 -0.13344 0.40038 0.40038Z" fill="#BDBDBD"/>
</svg>
