<svg width="189" height="51" viewBox="0 0 189 51" fill="none" xmlns="http://www.w3.org/2000/svg">
<path fill-rule="evenodd" clip-rule="evenodd" d="M101.286 30.9211C100.502 31.3235 99.622 31.5279 98.677 31.5279C96.0709 31.5279 93.8645 29.8084 93.0735 27.4859C93.0469 27.4078 93.0218 27.329 92.9982 27.2495H108.086C108.186 26.6546 108.244 26.0434 108.244 25.3997C108.244 22.4252 107.161 19.9152 105.28 18.212C103.631 16.7207 101.375 15.8406 98.677 15.8406C94.772 15.8406 91.4 18.0409 89.7597 21.2354C89.077 22.5556 88.6856 24.0387 88.6856 25.6197C88.6856 27.2006 89.0769 28.6838 89.7597 30.004C91.3999 33.1985 94.772 35.3988 98.677 35.3988C99.8715 35.3988 100.98 35.2086 101.993 34.8594C104.342 34.1174 105.843 32.716 107.024 30.86L103.519 28.8635C102.968 29.7447 102.13 30.4123 101.286 30.9186L101.286 30.9211ZM104.064 23.5742C103.823 22.3681 103.115 21.3495 102.066 20.6567C101.167 20.0699 100.026 19.7115 98.677 19.7115C96.1384 19.7115 93.9791 21.343 93.1378 23.5742H104.064Z" fill="#333333"/>
<path d="M169.364 31.276V35.3558C170.284 35.3839 171.421 35.3984 171.628 35.3984C172.765 35.3984 173.733 35.0718 174.487 34.3832C175.23 33.7242 175.79 32.8284 176.18 31.7231C176.588 30.6328 176.884 29.3766 177.072 27.9592C177.259 26.5521 177.387 25.0439 177.457 23.4353L177.457 23.4334L177.63 19.8635H184.595V35.1246H188.903V16.0112H173.832L173.498 23.1842L173.498 23.1854C173.452 24.2275 173.383 25.2698 173.291 26.312C173.2 27.341 173.054 28.262 172.853 29.0771C172.659 29.8422 172.365 30.4277 171.988 30.8576L171.984 30.8625L171.98 30.8675C171.67 31.2415 171.238 31.4435 170.622 31.4435C170.538 31.4435 170.438 31.4352 170.32 31.4158C170.177 31.3922 170.023 31.3689 169.858 31.3456L169.364 31.276Z" fill="#333333"/>
<path fill-rule="evenodd" clip-rule="evenodd" d="M140.795 35.1249V33.5485C140.467 33.8423 140.098 34.1064 139.69 34.3412L139.686 34.3431L139.683 34.3449C138.481 35.0122 136.994 35.3302 135.249 35.3302C133.831 35.3302 132.56 35.093 131.446 34.6047L131.442 34.6031C130.356 34.1159 129.495 33.4355 128.883 32.554L128.879 32.5487C128.267 31.6436 127.963 30.6237 127.963 29.5033C127.963 28.4419 128.214 27.4668 128.722 26.5892L128.725 26.5847L128.728 26.5802C129.276 25.6786 130.137 24.9817 131.268 24.4723L131.272 24.4707C132.445 23.9535 133.977 23.7106 135.839 23.7106H140.622V23.5494C140.622 22.2604 140.24 21.3341 139.534 20.6955L139.529 20.6908L139.524 20.6859C138.84 20.0308 137.759 19.6584 136.186 19.6584C135.155 19.6584 134.146 19.8313 133.157 20.1784L133.152 20.18L133.148 20.1815C132.157 20.5074 131.335 20.9475 130.674 21.4944L128.768 18.1946C129.75 17.4375 130.907 16.8668 132.23 16.477C133.619 16.0522 135.065 15.8405 136.567 15.8405C139.161 15.8405 141.235 16.4629 142.718 17.777C144.221 19.1091 144.929 21.1131 144.929 23.6862V35.1249H140.795ZM138.815 31.0672L138.82 31.0645C139.644 30.5886 140.242 29.9051 140.622 28.997V27.0495H135.978C135.169 27.0495 134.514 27.1163 134.004 27.2409C133.491 27.3661 133.155 27.542 132.95 27.7368C132.466 28.1947 132.235 28.7291 132.235 29.3664C132.235 30.0996 132.519 30.6745 133.114 31.1305C133.718 31.5706 134.596 31.8202 135.804 31.8202C136.979 31.8202 137.977 31.5632 138.815 31.0672Z" fill="#333333"/>
<path d="M63.75 16.0115V35.1249H67.7799V23.1051L73.813 33.0718H75.8186L81.9232 23.1368V35.1249H85.9184V16.0115H82.0325L74.9007 27.799L67.9518 16.0115H63.75Z" fill="#333333"/>
<path d="M109.333 19.8638H116.061V35.1249H120.369V19.8638H127.097V16.0115H109.333V19.8638Z" fill="#333333"/>
<path d="M147.166 31.2763V35.3561C148.086 35.3842 149.223 35.3987 149.43 35.3987C150.567 35.3987 151.535 35.0721 152.288 34.3834C153.032 33.7245 153.591 32.8287 153.982 31.7234C154.389 30.6331 154.685 29.3769 154.874 27.9595C155.061 26.5524 155.189 25.0443 155.259 23.4356L155.259 23.4337L155.431 19.8638H162.397V35.1249H166.704V16.0115H151.633L151.299 23.1845L151.299 23.1857C151.253 24.2279 151.185 25.2701 151.093 26.3123C151.002 27.3413 150.855 28.2623 150.654 29.0773C150.46 29.8424 150.166 30.428 149.79 30.8579L149.786 30.8628L149.781 30.8678C149.471 31.2418 149.04 31.4438 148.424 31.4438C148.34 31.4438 148.239 31.4354 148.122 31.4161C147.979 31.3925 147.825 31.3692 147.66 31.3459L147.166 31.2763Z" fill="#333333"/>
<path d="M43.5393 7.46878C52.8104 16.75 53.4409 31.4056 45.4307 41.4177L45.4092 41.3962C44.2304 42.878 42.8902 44.2254 41.4152 45.4118L41.4281 45.4246C39.5089 46.9633 37.4191 48.1836 35.2291 49.0853C33.0558 49.9881 30.7307 50.5984 28.3027 50.8671V50.8491C26.4218 51.0543 24.5224 51.0502 22.6422 50.8369V50.8671C9.90609 49.4577 0 38.6483 0 25.5228C0 14.869 6.52632 5.74129 15.795 1.9275C25.0244 -1.88698 36.0387 -0.0398816 43.5393 7.46878Z" fill="#DD0858"/>
<path fill-rule="evenodd" clip-rule="evenodd" d="M29.5874 33.203C28.4513 33.7859 27.1766 34.082 25.8075 34.082C22.0322 34.082 18.8359 31.591 17.69 28.2265C17.6515 28.1134 17.615 27.9992 17.5809 27.8841H39.4375C39.5823 27.0223 39.6667 26.1369 39.6667 25.2042C39.6667 20.8952 38.0987 17.2591 35.3727 14.7917C32.9845 12.6313 29.7155 11.3563 25.8075 11.3563C20.1506 11.3563 15.2656 14.5438 12.8894 19.1717C11.9004 21.0842 11.3334 23.2327 11.3334 25.523C11.3334 27.8133 11.9003 29.9619 12.8893 31.8744C15.2655 36.5022 20.1506 39.6897 25.8075 39.6897C27.5381 39.6897 29.1432 39.4142 30.6115 38.9083C34.0136 37.8333 36.1884 35.8032 37.8993 33.1144L32.8216 30.2223C32.0232 31.4988 30.8094 32.4659 29.5871 33.1993L29.5874 33.203ZM33.6117 22.5598C33.2619 20.8126 32.2367 19.3369 30.7169 18.3332C29.4142 17.4832 27.7615 16.964 25.8075 16.964C22.13 16.964 19.0019 19.3275 17.7832 22.5598H33.6117Z" fill="white"/>
</svg>
