<svg width="161" height="40" viewBox="0 0 161 40" fill="none" xmlns="http://www.w3.org/2000/svg">
<path d="M7.78716 38.1478L21.4673 24.4677L22.9853 25.9857L22.9863 25.9847L35.1493 38.1478L38.1666 35.1305L31.1768 28.1407L40.2072 32.1613L41.9536 28.2389L31.5683 23.615H42.9364V19.3214H33.0514L42.2799 15.7789L40.7412 11.7704L30.1281 15.8444L38.1666 7.80593L35.1305 4.76986L28.1407 11.7596L32.1614 2.7292L28.2389 0.982829L23.615 11.3682V0H19.3214V9.88496L15.7789 0.656534L11.7705 2.19524L15.8445 12.8085L7.80592 4.76986L4.76986 7.80593L11.7595 14.7956L2.72923 10.7751L0.982842 14.6975L11.3683 19.3214H0V23.615H9.88496L0.65656 27.1575L2.19526 31.166L12.8084 27.0919L4.76986 35.1305L7.78716 38.1478Z" fill="#2492FF"/>
<path d="M59.8515 0.243103V18.0243H56.2956V0.243103H59.8515ZM63.4648 7.97897V10.9136H58.0941V7.97897H63.4648ZM78.1069 9.13371C78.1069 11.0727 77.7593 12.7224 77.064 14.0826C76.3742 15.4428 75.4325 16.4818 74.239 17.1995C73.051 17.9114 71.7152 18.2674 70.2315 18.2674C68.7369 18.2674 67.3956 17.9085 66.2076 17.1908C65.0196 16.4731 64.0807 15.4341 63.3909 14.0739C62.7011 12.7137 62.3561 11.0669 62.3561 9.13371C62.3561 7.19467 62.7011 5.54505 63.3909 4.18484C64.0807 2.82462 65.0196 1.78854 66.2076 1.0766C67.3956 0.358866 68.7369 0 70.2315 0C71.7152 0 73.051 0.358866 74.239 1.0766C75.4325 1.78854 76.3742 2.82462 77.064 4.18484C77.7593 5.54505 78.1069 7.19467 78.1069 9.13371ZM74.5018 9.13371C74.5018 7.87768 74.3239 6.81844 73.968 5.95601C73.6176 5.09358 73.1222 4.43951 72.4816 3.99383C71.8411 3.54814 71.0911 3.32529 70.2315 3.32529C69.372 3.32529 68.622 3.54814 67.9814 3.99383C67.3409 4.43951 66.8427 5.09358 66.4868 5.95601C66.1364 6.81844 65.9612 7.87768 65.9612 9.13371C65.9612 10.3897 66.1364 11.449 66.4868 12.3114C66.8427 13.1738 67.3409 13.8279 67.9814 14.2736C68.622 14.7193 69.372 14.9421 70.2315 14.9421C71.0911 14.9421 71.8411 14.7193 72.4816 14.2736C73.1222 13.8279 73.6176 13.1738 73.968 12.3114C74.3239 11.449 74.5018 10.3897 74.5018 9.13371Z" fill="#2B2B2B"/>
<path d="M92.6165 0.243103V18.0243H89.1674V0.243103H92.6165ZM79.0091 18.0243L84.2812 8.6475L79.2308 0.243103H83.6078L87.3854 7.56222H94.4888L98.1679 0.243103H102.528L97.6012 8.62146L102.775 18.0243H98.5292L94.9734 11.0351H86.868L83.2219 18.0243H79.0091Z" fill="#2B2B2B"/>
<path d="M105.785 18.2674V15.2113H106.697C107.151 15.2113 107.518 15.1534 107.797 15.0376C108.077 14.9161 108.298 14.7395 108.463 14.508C108.632 14.2707 108.775 13.9755 108.89 13.6224L109.095 13.0407L102.985 0.243103H106.664L110.622 8.99479L113.932 0.243103H117.562L111.764 14.5341C111.485 15.1939 111.153 15.8074 110.77 16.3747C110.392 16.9419 109.908 17.3992 109.317 17.7465C108.725 18.0938 107.97 18.2674 107.05 18.2674H105.785Z" fill="#2B2B2B"/>
<path d="M118.56 18.0243V0.243103H125.196C126.471 0.243103 127.558 0.500676 128.456 1.01582C129.354 1.52518 130.038 2.23423 130.509 3.14297C130.985 4.04592 131.223 5.08779 131.223 6.26857C131.223 7.44935 130.982 8.49122 130.501 9.39417C130.019 10.2971 129.321 11.0004 128.407 11.504C127.498 12.0075 126.397 12.2593 125.105 12.2593H120.876V9.24658H124.53C125.215 9.24658 125.779 9.12213 126.222 8.87324C126.671 8.61856 127.005 8.26838 127.224 7.82269C127.448 7.37121 127.561 6.85317 127.561 6.26857C127.561 5.67818 127.448 5.16303 127.224 4.72313C127.005 4.27745 126.671 3.93305 126.222 3.68995C125.773 3.44106 125.204 3.31661 124.514 3.31661H122.116V18.0243H118.56Z" fill="#2B2B2B"/>
<path d="M133.565 18.0243H129.754L135.56 0.243103H140.142L145.94 18.0243H142.13L137.917 4.30639H137.786L133.565 18.0243ZM133.326 11.0351H142.327V13.9697H133.326V11.0351Z" fill="#2B2B2B"/>
<path d="M146.128 18.0243V15.0029L146.604 14.9595C147.217 14.9074 147.713 14.6614 148.091 14.2215C148.468 13.7758 148.75 13.0668 148.936 12.0943C149.128 11.1161 149.251 9.80224 149.306 8.15261L149.585 0.243103H161V18.0243H157.543V3.25584H152.886L152.624 9.44627C152.536 11.4374 152.312 13.0639 151.95 14.3257C151.594 15.5875 151.025 16.5194 150.242 17.1214C149.465 17.7233 148.4 18.0243 147.048 18.0243H146.128Z" fill="#2B2B2B"/>
<path d="M71.1349 28.2008H67.538C67.4723 27.7089 67.3381 27.2718 67.1356 26.8898C66.933 26.502 66.673 26.1721 66.3554 25.9001C66.0379 25.628 65.6711 25.4196 65.255 25.2749C64.8444 25.1302 64.3982 25.0579 63.9164 25.0579C63.046 25.0579 62.2877 25.2865 61.6417 25.7438C60.9957 26.1953 60.4947 26.8551 60.1389 27.7233C59.783 28.5858 59.6051 29.6334 59.6051 30.8663C59.6051 32.1339 59.783 33.1989 60.1389 34.0614C60.5002 34.9238 61.0039 35.575 61.6499 36.0149C62.2959 36.4548 63.0432 36.6747 63.8918 36.6747C64.3681 36.6747 64.8088 36.6081 65.2139 36.475C65.6246 36.3419 65.9886 36.148 66.3062 35.8933C66.6237 35.6328 66.8865 35.3174 67.0945 34.9469C67.308 34.5765 67.4558 34.154 67.538 33.6793L71.1349 33.6967C71.0418 34.5128 70.8091 35.3 70.4368 36.0583C70.07 36.8107 69.5746 37.485 68.9504 38.0812C68.3318 38.6716 67.5927 39.1405 66.7332 39.4877C65.8791 39.8293 64.9128 40 63.8343 40C62.3342 40 60.9929 39.6411 59.8104 38.9234C58.6333 38.2057 57.7026 37.1667 57.0183 35.8065C56.3394 34.4463 56 32.7995 56 30.8663C56 28.9273 56.3449 27.2776 57.0347 25.9174C57.7245 24.5572 58.6607 23.5211 59.8433 22.8092C61.0258 22.0915 62.3561 21.7326 63.8343 21.7326C64.8088 21.7326 65.7121 21.8773 66.5443 22.1667C67.3819 22.4561 68.1238 22.8786 68.7698 23.4343C69.4158 23.9842 69.9414 24.6585 70.3465 25.4573C70.7571 26.256 71.0199 27.1706 71.1349 28.2008Z" fill="#2B2B2B"/>
<path d="M72.7597 39.7569V21.9757H76.3155V29.3122H83.5339V21.9757H87.0816V39.7569H83.5339V32.4117H76.3155V39.7569H72.7597Z" fill="#2B2B2B"/>
<path d="M91.9871 39.7569H88.1767L93.9827 21.9757H98.565L104.363 39.7569H100.552L96.3395 26.039H96.2081L91.9871 39.7569ZM91.749 32.7677H100.749V35.7023H91.749V32.7677Z" fill="#2B2B2B"/>
<path d="M105.462 39.7569V21.9757H116.622V25.0752H109.018V28.5481H111.752C113.083 28.5481 114.23 28.7768 115.193 29.234C116.162 29.6855 116.91 30.3251 117.435 31.1528C117.961 31.9805 118.224 32.9558 118.224 34.0787C118.224 35.1958 117.961 36.1827 117.435 37.0394C116.91 37.8902 116.162 38.5559 115.193 39.0363C114.23 39.5167 113.083 39.7569 111.752 39.7569H105.462ZM109.018 36.7355H111.752C112.388 36.7355 112.924 36.6139 113.362 36.3708C113.8 36.1219 114.131 35.7949 114.356 35.3897C114.586 34.9788 114.701 34.5302 114.701 34.044C114.701 33.3378 114.446 32.7417 113.937 32.2555C113.433 31.7635 112.705 31.5175 111.752 31.5175H109.018V36.7355Z" fill="#2B2B2B"/>
</svg>
