<svg width="182" height="46" viewBox="0 0 182 46" fill="none" xmlns="http://www.w3.org/2000/svg">
<g opacity="0.5">
<path d="M8.80288 43.1236L24.2673 27.6591L25.9834 29.3752L25.9845 29.374L39.734 43.1235L43.1448 39.7127L35.2433 31.8112L45.4516 36.3563L47.4258 31.9222L35.6859 26.6953H48.5368V21.8416H37.3624L47.7946 17.837L46.0552 13.3057L34.0578 17.9111L43.1448 8.8241L39.7128 5.39202L31.8113 13.2935L36.3563 3.08519L31.9222 1.11102L26.6953 12.851V0H21.8416V11.1743L17.8371 0.742169L13.3058 2.48157L17.9112 14.4791L8.82408 5.39202L5.39202 8.8241L13.2934 16.7255L3.08522 12.1805L1.11104 16.6146L12.8511 21.8416H0V26.6953H11.1743L0.742198 30.6998L2.4816 35.2311L14.4791 30.6257L5.39202 39.7127L8.80288 43.1236Z" fill="white"/>
<path d="M67.6582 0.274812V20.3753H63.6386V0.274812H67.6582ZM71.7428 9.0197V12.3371H65.6716V9.0197H71.7428ZM88.2948 10.3251C88.2948 12.517 87.9018 14.3818 87.1158 15.9194C86.336 17.4571 85.2715 18.6316 83.9224 19.4429C82.5794 20.2477 81.0693 20.6501 79.3922 20.6501C77.7026 20.6501 76.1864 20.2444 74.8434 19.4331C73.5004 18.6217 72.4391 17.4473 71.6593 15.9096C70.8795 14.372 70.4896 12.5105 70.4896 10.3251C70.4896 8.13311 70.8795 6.26832 71.6593 4.73068C72.4391 3.19305 73.5004 2.02183 74.8434 1.21702C76.1864 0.405674 77.7026 0 79.3922 0C81.0693 0 82.5794 0.405674 83.9224 1.21702C85.2715 2.02183 86.336 3.19305 87.1158 4.73068C87.9018 6.26832 88.2948 8.13311 88.2948 10.3251ZM84.2195 10.3251C84.2195 8.9052 84.0183 7.70781 83.616 6.73288C83.22 5.75796 82.6599 5.01858 81.9358 4.51476C81.2117 4.01094 80.3638 3.75903 79.3922 3.75903C78.4205 3.75903 77.5727 4.01094 76.8486 4.51476C76.1245 5.01858 75.5613 5.75796 75.159 6.73288C74.7629 7.70781 74.5649 8.9052 74.5649 10.3251C74.5649 11.7449 74.7629 12.9423 75.159 13.9172C75.5613 14.8922 76.1245 15.6315 76.8486 16.1354C77.5727 16.6392 78.4205 16.8911 79.3922 16.8911C80.3638 16.8911 81.2117 16.6392 81.9358 16.1354C82.6599 15.6315 83.22 14.8922 83.616 13.9172C84.0183 12.9423 84.2195 11.7449 84.2195 10.3251Z" fill="white"/>
<path d="M104.697 0.274812V20.3753H100.798V0.274812H104.697ZM89.3146 20.3753L95.2745 9.77544L89.5653 0.274812H94.5132L98.7835 8.5486H106.813L110.972 0.274812H115.902L110.332 9.74599L116.18 20.3753H111.381L107.361 12.4745H98.1987L94.0769 20.3753H89.3146Z" fill="white"/>
<path d="M119.584 20.6501V17.1953H120.614C121.128 17.1953 121.542 17.1299 121.858 16.9991C122.174 16.8616 122.424 16.6621 122.61 16.4004C122.802 16.1321 122.963 15.7984 123.093 15.3993L123.325 14.7417L116.418 0.274812H120.577L125.051 10.168L128.793 0.274812H132.896L126.342 16.4298C126.026 17.1757 125.652 17.8693 125.218 18.5105C124.791 19.1517 124.244 19.6686 123.575 20.0612C122.907 20.4538 122.053 20.6501 121.013 20.6501H119.584Z" fill="white"/>
<path d="M134.025 20.3753V0.274812H141.525C142.967 0.274812 144.196 0.565981 145.211 1.14832C146.226 1.72412 146.999 2.52565 147.532 3.55292C148.07 4.57365 148.339 5.75141 148.339 7.08621C148.339 8.42101 148.067 9.59877 147.522 10.6195C146.978 11.6402 146.189 12.4352 145.155 13.0045C144.128 13.5737 142.884 13.8583 141.423 13.8583H136.643V10.4527H140.774C141.547 10.4527 142.185 10.312 142.686 10.0306C143.193 9.74272 143.571 9.34686 143.818 8.84304C144.072 8.33268 144.199 7.74707 144.199 7.08621C144.199 6.41881 144.072 5.83647 143.818 5.33919C143.571 4.83537 143.193 4.44606 142.686 4.17125C142.178 3.88989 141.535 3.74921 140.755 3.74921H138.044V20.3753H134.025Z" fill="white"/>
<path d="M150.986 20.3753H146.679L153.242 0.274812H158.422L164.976 20.3753H160.668L155.906 4.86809H155.758L150.986 20.3753ZM150.717 12.4745H160.891V15.7918H150.717V12.4745Z" fill="white"/>
<path d="M165.188 20.3753V16.9598L165.727 16.9107C166.42 16.8518 166.98 16.5737 167.407 16.0765C167.834 15.5726 168.153 14.7711 168.363 13.6719C168.58 12.5661 168.719 11.0808 168.781 9.216L169.096 0.274812H182V20.3753H178.092V3.68051H172.828L172.531 10.6784C172.432 12.9292 172.178 14.7678 171.77 16.1942C171.368 17.6206 170.724 18.6741 169.839 19.3546C168.96 20.0351 167.756 20.3753 166.228 20.3753H165.188Z" fill="white"/>
<path d="M80.4133 31.8792H76.3473C76.273 31.3231 76.1214 30.829 75.8924 30.3972C75.6634 29.9588 75.3695 29.5859 75.0105 29.2783C74.6516 28.9708 74.2369 28.7352 73.7666 28.5717C73.3024 28.4081 72.798 28.3263 72.2534 28.3263C71.2694 28.3263 70.4122 28.5848 69.6819 29.1017C68.9517 29.612 68.3854 30.3579 67.9831 31.3394C67.5808 32.3143 67.3797 33.4986 67.3797 34.8923C67.3797 36.3253 67.5808 37.5292 67.9831 38.5041C68.3916 39.4791 68.9609 40.2152 69.6912 40.7124C70.4215 41.2097 71.2663 41.4584 72.2255 41.4584C72.764 41.4584 73.2622 41.3831 73.7201 41.2326C74.1843 41.0821 74.5959 40.8629 74.9548 40.575C75.3138 40.2806 75.6108 39.924 75.846 39.5052C76.0874 39.0865 76.2545 38.6088 76.3473 38.0723L80.4133 38.0919C80.3081 39.0145 80.0451 39.9044 79.6243 40.7615C79.2096 41.6121 78.6495 42.3744 77.944 43.0483C77.2447 43.7157 76.4092 44.2457 75.4375 44.6383C74.4721 45.0244 73.3797 45.2174 72.1606 45.2174C70.4648 45.2174 68.9486 44.8117 67.6118 44.0004C66.2812 43.189 65.2291 42.0145 64.4555 40.4769C63.6881 38.9393 63.3044 37.0777 63.3044 34.8923C63.3044 32.7004 63.6943 30.8356 64.4741 29.298C65.2538 27.7603 66.3121 26.5891 67.6489 25.7843C68.9857 24.9729 70.4896 24.5673 72.1606 24.5673C73.2622 24.5673 74.2833 24.7309 75.224 25.058C76.1709 25.3852 77.0095 25.8628 77.7398 26.491C78.47 27.1125 79.0642 27.8748 79.5221 28.7778C79.9863 29.6807 80.2834 30.7145 80.4133 31.8792Z" fill="white"/>
<path d="M82.2501 44.9426V24.8421H86.2697V33.1355H94.4297V24.8421H98.44V44.9426H94.4297V36.6393H86.2697V44.9426H82.2501Z" fill="white"/>
<path d="M103.985 44.9426H99.678L106.241 24.8421H111.421L117.975 44.9426H113.668L108.906 29.4354H108.757L103.985 44.9426ZM103.716 37.0418H113.891V40.3591H103.716V37.0418Z" fill="white"/>
<path d="M119.218 44.9426V24.8421H131.834V28.3459H123.238V32.2718H126.329C127.833 32.2718 129.129 32.5303 130.219 33.0472C131.314 33.5575 132.159 34.2805 132.753 35.2162C133.347 36.1519 133.644 37.2544 133.644 38.5238C133.644 39.7866 133.347 40.9022 132.753 41.8706C132.159 42.8324 131.314 43.5849 130.219 44.128C129.129 44.671 127.833 44.9426 126.329 44.9426H119.218ZM123.238 41.5271H126.329C127.047 41.5271 127.653 41.3897 128.148 41.1148C128.643 40.8335 129.018 40.4638 129.272 40.0058C129.532 39.5412 129.662 39.0341 129.662 38.4845C129.662 37.6862 129.374 37.0123 128.798 36.4627C128.229 35.9065 127.406 35.6284 126.329 35.6284H123.238V41.5271Z" fill="white"/>
</g>
</svg>
