<svg width="19" height="19" viewBox="0 0 19 19" fill="none" xmlns="http://www.w3.org/2000/svg">
<path fill-rule="evenodd" clip-rule="evenodd" d="M9.68828 1.78946L11.9561 1.05613C12.216 0.971758 12.4975 0.982798 12.75 1.08727C13.0025 1.19173 13.2095 1.38279 13.3338 1.62613L14.4172 3.74946C14.5283 3.96502 14.7027 4.14057 14.9183 4.24946L17.0149 5.32168C17.5327 5.58502 17.7816 6.18724 17.6027 6.74057L16.8772 8.98057C16.8038 9.21057 16.8038 9.45835 16.8772 9.68835L17.6116 11.9561C17.696 12.216 17.6849 12.4975 17.5805 12.75C17.476 13.0026 17.285 13.2096 17.0416 13.3339L14.9183 14.4172C14.7032 14.5273 14.5283 14.7022 14.4183 14.9172L13.3327 17.0417C13.0761 17.5439 12.4927 17.7861 11.9549 17.6117L9.68828 16.8772C9.45784 16.8028 9.20983 16.8028 8.97939 16.8772L6.71161 17.6106C6.45197 17.6947 6.17085 17.6837 5.91859 17.5795C5.66634 17.4752 5.45944 17.2846 5.33495 17.0417L4.2505 14.9184C4.14067 14.7029 3.96571 14.5275 3.7505 14.4172L1.62606 13.3317C1.3828 13.2075 1.19178 13.0007 1.08731 12.7484C0.982832 12.4961 0.971752 12.2148 1.05606 11.955L1.7905 9.68724C1.86495 9.45724 1.86495 9.20946 1.7905 8.97946L1.05717 6.71279C0.973032 6.45286 0.984184 6.17147 1.08863 5.91901C1.19307 5.66656 1.38398 5.45953 1.62717 5.33502L3.74939 4.25057C3.96507 4.14105 4.1405 3.96601 4.2505 3.75057L5.33606 1.62613C5.59161 1.12502 6.17606 0.882795 6.71272 1.05613L8.9805 1.78946C9.20939 1.86502 9.45828 1.86502 9.68828 1.78946Z" fill="#2764E0" stroke="#2764E0" stroke-width="1.66667" stroke-linecap="round" stroke-linejoin="round"/>
<path fill-rule="evenodd" clip-rule="evenodd" d="M12.4434 6.52085C12.545 6.40123 12.688 6.32429 12.8438 6.30535C12.9997 6.2864 13.1569 6.32684 13.2843 6.41861C13.4116 6.51038 13.4997 6.64674 13.5311 6.80056C13.5624 6.95437 13.5347 7.11434 13.4534 7.24863L13.3867 7.34085L9.0456 12.3408C8.94762 12.4536 8.81255 12.5275 8.66481 12.5493C8.51707 12.5711 8.3664 12.5393 8.24004 12.4597L8.14893 12.3886L4.99004 9.45863C4.8768 9.35217 4.80725 9.20736 4.79494 9.05243C4.78262 8.89749 4.82842 8.74352 4.92342 8.62051C5.01842 8.4975 5.15581 8.41426 5.30882 8.387C5.46184 8.35974 5.61952 8.39043 5.75115 8.47307L5.84004 8.54196L8.5256 11.0331L12.4434 6.52085Z" fill="white"/>
</svg>
