<svg width="16" height="16" viewBox="0 0 16 16" fill="none" xmlns="http://www.w3.org/2000/svg">
<path d="M8.0001 3.39395C8.5347 3.39395 8.9696 3.82915 8.9696 4.36408C8.9696 4.89853 8.5347 5.33334 8.0001 5.33334C7.46551 5.33334 7.0306 4.89853 7.0306 4.36408C7.0306 3.82915 7.46551 3.39395 8.0001 3.39395Z" fill="#1078DF"/>
<path d="M8.72727 7.51516C8.72727 7.11351 8.40165 6.78789 8 6.78789C7.59835 6.78789 7.27273 7.11351 7.27273 7.51516V11.8788C7.27273 12.2804 7.59835 12.6061 8 12.6061C8.40165 12.6061 8.72727 12.2804 8.72727 11.8788V7.51516Z" fill="#1078DF"/>
<path fill-rule="evenodd" clip-rule="evenodd" d="M8 0C12.4112 0 16 3.58885 16 8.00005C16 12.4113 12.4112 16 8 16C3.5888 16 0 12.4113 0 8.00005C0 3.58885 3.5888 0 8 0ZM8 14.5455C11.6092 14.5455 14.5455 11.6092 14.5455 8.00005C14.5455 4.39089 11.6092 1.45455 8 1.45455C4.39079 1.45455 1.45455 4.39089 1.45455 8.00005C1.45455 11.6092 4.39084 14.5455 8 14.5455Z" fill="#1078DF"/>
</svg>
