<svg width="32" height="32" viewBox="0 0 32 32" fill="none" xmlns="http://www.w3.org/2000/svg">
<circle cx="16" cy="16" r="16" fill="#2492FF"/>
<path fill-rule="evenodd" clip-rule="evenodd" d="M7.2609 16.2314L10.7142 17.5161L12.0591 21.8001C12.0786 21.8635 12.1135 21.9211 12.1606 21.9679C12.2078 22.0146 12.2658 22.0491 12.3295 22.0682C12.3932 22.0873 12.4607 22.0905 12.5259 22.0775C12.5912 22.0644 12.6522 22.0355 12.7036 21.9934L14.6299 20.4296C14.7281 20.3498 14.8501 20.3046 14.9768 20.3011C15.1035 20.2975 15.2278 20.3358 15.3304 20.41L18.8047 22.9222C18.8597 22.9622 18.9238 22.9877 18.9913 22.9966C19.0587 23.0054 19.1272 22.9972 19.1907 22.9727C19.2541 22.9483 19.3104 22.9084 19.3543 22.8566C19.3983 22.8049 19.4285 22.743 19.4422 22.6766L21.9919 10.4875C22.0064 10.4161 22.0014 10.3421 21.9774 10.2733C21.9534 10.2045 21.9112 10.1433 21.8553 10.0963C21.7995 10.0492 21.7321 10.0179 21.66 10.0057C21.5879 9.99354 21.5138 10.0009 21.4455 10.0269L7.25389 15.4763C7.17823 15.507 7.11361 15.5596 7.06834 15.6274C7.02307 15.6951 6.99926 15.7748 7.00002 15.8562C7.00077 15.9376 7.02601 16.0169 7.07253 16.0838C7.11905 16.1507 7.18469 16.2021 7.2609 16.2314ZM11.842 16.8322L18.5945 12.6892C18.6194 12.6726 18.6497 12.666 18.6793 12.6707C18.7088 12.6754 18.7355 12.691 18.7541 12.7144C18.7726 12.7378 18.7816 12.7673 18.7793 12.797C18.777 12.8267 18.7636 12.8545 18.7417 12.8748L13.1659 18.0353C12.9705 18.2178 12.8423 18.4603 12.8017 18.7241L12.6125 20.1253C12.6079 20.1648 12.5896 20.2015 12.5607 20.229C12.5319 20.2565 12.4943 20.2731 12.4545 20.276C12.4147 20.2789 12.3751 20.2679 12.3426 20.2448C12.3101 20.2218 12.2867 20.1881 12.2763 20.1497L11.5408 17.5943C11.5008 17.4519 11.5086 17.3004 11.5629 17.1628C11.6173 17.0253 11.7153 16.9092 11.842 16.8322Z" fill="white"/>
</svg>
