<svg width="32" height="32" viewBox="0 0 32 32" fill="none" xmlns="http://www.w3.org/2000/svg">
<path d="M16 32C24.8366 32 32 24.8366 32 16C32 7.16344 24.8366 0 16 0C7.16344 0 0 7.16344 0 16C0 24.8366 7.16344 32 16 32Z" fill="#665CAC"/>
<path d="M17.6843 8H14.3159C12.7525 8 11.2531 8.62105 10.1477 9.72653C9.04219 10.832 8.42114 12.3314 8.42114 13.8947V16.4211C8.42067 17.537 8.73697 18.6301 9.33325 19.5734C9.92954 20.5166 10.7813 21.2712 11.7896 21.7495V24.5642C11.7906 24.6191 11.8076 24.6725 11.8385 24.7179C11.8694 24.7633 11.9129 24.7987 11.9637 24.8197C12.0144 24.8407 12.0702 24.8464 12.1242 24.8362C12.1781 24.826 12.2279 24.8002 12.2675 24.7621L14.7138 22.3158H17.6843C19.2477 22.3158 20.747 21.6947 21.8525 20.5893C22.958 19.4838 23.579 17.9844 23.579 16.4211V13.8947C23.579 12.3314 22.958 10.832 21.8525 9.72653C20.747 8.62105 19.2477 8 17.6843 8ZM19.8906 19.0484L19.0485 19.8905C18.1517 20.7684 15.8106 19.7663 13.7475 17.6589C11.6843 15.5516 10.779 13.1874 11.6422 12.3095L12.4843 11.4674C12.6493 11.3192 12.8639 11.2383 13.0857 11.2407C13.3075 11.243 13.5203 11.3284 13.6822 11.48L14.9117 12.7432C15.0093 12.8439 15.0797 12.9679 15.1163 13.1033C15.1529 13.2388 15.1544 13.3813 15.1207 13.5175C15.087 13.6538 15.0192 13.7792 14.9237 13.882C14.8282 13.9848 14.7082 14.0616 14.5748 14.1053C14.3772 14.1659 14.2104 14.3004 14.1093 14.4807C14.0082 14.661 13.9804 14.8734 14.0317 15.0737C14.2422 16.0084 15.4296 17.1789 16.3138 17.4084C16.5131 17.4559 16.7229 17.4291 16.9039 17.333C17.0849 17.2369 17.2246 17.0781 17.2969 16.8863C17.3436 16.7526 17.424 16.6331 17.5302 16.5394C17.6365 16.4457 17.765 16.381 17.9036 16.3514C18.0421 16.3217 18.1859 16.3283 18.3212 16.3704C18.4564 16.4124 18.5786 16.4886 18.6759 16.5916L19.9032 17.8547C20.0507 18.0193 20.1311 18.2331 20.1288 18.454C20.1264 18.675 20.0415 18.887 19.8906 19.0484ZM16.7664 12C16.6827 11.9996 16.599 12.0045 16.5159 12.0147C16.4792 12.0187 16.4422 12.0155 16.4068 12.0052C16.3714 11.9949 16.3384 11.9777 16.3097 11.9546C16.281 11.9316 16.257 11.903 16.2393 11.8707C16.2216 11.8384 16.2104 11.8029 16.2064 11.7663C16.2024 11.7297 16.2056 11.6926 16.216 11.6572C16.2263 11.6219 16.2435 11.5889 16.2665 11.5601C16.2896 11.5314 16.3181 11.5075 16.3504 11.4898C16.3827 11.472 16.4182 11.4609 16.4548 11.4568C16.5583 11.4449 16.6623 11.4393 16.7664 11.44C17.5114 11.4394 18.2262 11.7347 18.7536 12.261C19.281 12.7872 19.5779 13.5013 19.579 14.2463C19.5797 14.3504 19.5741 14.4545 19.5622 14.5579C19.5582 14.5945 19.547 14.63 19.5293 14.6623C19.5116 14.6946 19.4876 14.7231 19.4589 14.7462C19.4302 14.7693 19.3972 14.7864 19.3618 14.7968C19.3264 14.8071 19.2894 14.8103 19.2527 14.8063C19.2161 14.8023 19.1806 14.7911 19.1483 14.7734C19.116 14.7557 19.0875 14.7318 19.0644 14.703C19.0413 14.6743 19.0242 14.6413 19.0139 14.6059C19.0035 14.5705 19.0003 14.5335 19.0043 14.4968C19.0135 14.4136 19.0184 14.33 19.019 14.2463C19.0179 13.6498 18.78 13.0781 18.3576 12.6569C17.9353 12.2357 17.3629 11.9994 16.7664 12ZM18.4506 14.2463C18.4445 14.3167 18.4123 14.3822 18.3602 14.4299C18.3082 14.4776 18.2402 14.5041 18.1696 14.5041C18.099 14.5041 18.0309 14.4776 17.9789 14.4299C17.9269 14.3822 17.8946 14.3167 17.8885 14.2463C17.8885 13.9487 17.7703 13.6633 17.5599 13.4529C17.3494 13.2424 17.064 13.1242 16.7664 13.1242C16.7275 13.1276 16.6882 13.1228 16.6512 13.1102C16.6142 13.0976 16.5802 13.0775 16.5514 13.0511C16.5226 13.0246 16.4996 12.9925 16.4838 12.9567C16.4681 12.9209 16.46 12.8823 16.46 12.8432C16.46 12.8041 16.4681 12.7654 16.4838 12.7296C16.4996 12.6938 16.5226 12.6617 16.5514 12.6352C16.5802 12.6088 16.6142 12.5887 16.6512 12.5761C16.6882 12.5635 16.7275 12.5587 16.7664 12.5621C17.2131 12.5621 17.6415 12.7395 17.9573 13.0554C18.2732 13.3712 18.4506 13.7996 18.4506 14.2463ZM20.5917 15.1579C20.5854 15.1962 20.5714 15.2327 20.5504 15.2653C20.5294 15.2979 20.5019 15.3259 20.4696 15.3474C20.4374 15.3689 20.401 15.3835 20.3628 15.3903C20.3247 15.3971 20.2855 15.396 20.2478 15.387C20.2101 15.378 20.1746 15.3613 20.1436 15.338C20.1126 15.3147 20.0868 15.2853 20.0677 15.2515C20.0486 15.2178 20.0367 15.1804 20.0326 15.1419C20.0286 15.1033 20.0326 15.0643 20.0443 15.0274C20.1051 14.7729 20.1355 14.5121 20.1348 14.2505C20.1348 13.3572 19.7799 12.5004 19.1482 11.8687C18.5165 11.237 17.6598 10.8821 16.7664 10.8821C16.6801 10.8821 16.5917 10.8821 16.5054 10.8821C16.4686 10.8849 16.4316 10.8804 16.3966 10.8688C16.3616 10.8573 16.3292 10.839 16.3012 10.815C16.2447 10.7664 16.2099 10.6974 16.2043 10.6232C16.1987 10.5489 16.2229 10.4755 16.2714 10.419C16.32 10.3625 16.389 10.3277 16.4632 10.3221C16.5643 10.3137 16.6654 10.3095 16.7664 10.3095C17.8094 10.3111 18.8092 10.7267 19.5461 11.4648C20.283 12.2029 20.6969 13.2033 20.6969 14.2463C20.697 14.5532 20.6617 14.8591 20.5917 15.1579Z" fill="white"/>
</svg>
