<svg width="32" height="32" viewBox="0 0 32 32" fill="none" xmlns="http://www.w3.org/2000/svg">
<circle cx="16" cy="16" r="16" fill="#10A34A"/>
<path fill-rule="evenodd" clip-rule="evenodd" d="M15.9998 8C14.5254 7.99899 13.0795 8.40572 11.8218 9.17521C10.5642 9.9447 9.54388 11.047 8.87367 12.3602C8.20346 13.6734 7.90952 15.1463 8.02425 16.6162C8.13898 18.086 8.65802 19.4955 9.52388 20.6888L8.52169 23.6606L11.6039 22.6779C12.9065 23.5431 14.4361 24.0031 15.9998 24C18.1216 24 20.1565 23.1571 21.6568 21.6568C23.1571 20.1566 24 18.1217 24 16C24 13.8783 23.1571 11.8434 21.6568 10.3431C20.1565 8.84286 18.1216 8 15.9998 8ZM20.6568 19.2968C20.4953 19.5891 20.271 19.8419 20.0002 20.0371C19.7294 20.2324 19.4187 20.3652 19.0904 20.4261C18.6694 20.5154 18.1219 20.5861 16.2861 19.824C14.6662 19.0306 13.2902 17.8152 12.3028 16.3057C11.7574 15.612 11.4266 14.774 11.3512 13.8947C11.3406 13.5307 11.408 13.1687 11.5489 12.8328C11.6898 12.497 11.9009 12.1953 12.1681 11.9478C12.3934 11.7507 12.6859 11.6479 12.985 11.6606C13.0861 11.6606 13.1787 11.6657 13.2544 11.6699C13.3734 11.6574 13.4926 11.6916 13.5869 11.7653C13.6812 11.8389 13.7431 11.9464 13.7597 12.0648C13.9534 12.5297 14.425 13.6775 14.4839 13.7962C14.5229 13.8607 14.5463 13.9335 14.5522 14.0086C14.558 14.0838 14.5462 14.1593 14.5176 14.229C14.4508 14.3646 14.3627 14.4885 14.2566 14.5962C14.1387 14.7318 14.0292 14.8362 13.9113 14.9819C13.835 15.0371 13.7827 15.1196 13.7655 15.2122C13.7482 15.3049 13.7673 15.4006 13.8187 15.4796C14.1697 16.0777 14.6066 16.621 15.1155 17.0922C15.6625 17.5935 16.2999 17.9861 16.9935 18.2493C17.0856 18.293 17.1887 18.3079 17.2894 18.292C17.3901 18.2761 17.4836 18.2301 17.5577 18.16C17.7346 17.9671 17.9535 17.6471 18.1809 17.3322C18.2376 17.2372 18.3278 17.1668 18.4337 17.1347C18.5395 17.1027 18.6536 17.1112 18.7536 17.1587C18.9725 17.2337 20.1094 17.7987 20.3452 17.9166C20.5141 17.9701 20.6672 18.064 20.7914 18.1903C20.8552 18.5641 20.8085 18.9484 20.6568 19.296V19.2968Z" fill="white"/>
</svg>
