<svg width="52" height="52" viewBox="0 0 52 52" fill="none" xmlns="http://www.w3.org/2000/svg">
<circle cx="26" cy="26" r="24.4" stroke="#2492FF" stroke-width="3.2"/>
<path d="M32.076 34.9233C33.4111 33.5835 34.0901 31.8284 33.9904 29.9768C33.7961 26.4382 30.5939 23.6665 26.7021 23.6665H23.4999V20.3335H30.4994C30.5375 20.3335 30.5751 20.3323 30.6125 20.3301H31.335C32.2545 20.3301 33 19.5845 33 18.665C33 17.7454 32.2545 17 31.335 17H23.4999C21.5697 17 20 18.4949 20 20.3335V25.3335C20 26.2551 20.7822 27 21.7499 27H26.7021C28.6987 27 30.3978 28.415 30.4941 30.1519C30.5449 31.0801 30.2054 31.9585 29.537 32.6284C28.8684 33.2966 27.969 33.6665 26.9996 33.6665H21.7499C20.7822 33.6665 20 34.4116 20 35.3335C20 36.2551 20.7822 37 21.7499 37H26.9996C28.9105 37 30.7601 36.2434 32.076 34.9233Z" fill="#2492FF"/>
</svg>
