<svg width="52" height="52" viewBox="0 0 52 52" fill="none" xmlns="http://www.w3.org/2000/svg">
<path fill-rule="evenodd" clip-rule="evenodd" d="M16.5615 19.3579L26.9615 26.2912C27.1989 26.4495 27.3936 26.6639 27.5283 26.9155C27.663 27.1671 27.7334 27.448 27.7333 27.7334V34.8948L34.6667 30.2725V21.7277L26 15.95L23.926 17.3334L23.9457 17.3465L21.6173 18.8017C21.0711 19.143 20.3757 19.1328 19.8398 18.7756C19.6024 18.6173 19.4077 18.4028 19.2731 18.1513C19.1385 17.8997 19.068 17.6187 19.068 17.3334C19.068 17.0481 19.1385 16.7671 19.2731 16.5155C19.4077 16.264 19.6024 16.0495 19.8398 15.8912L25.0385 12.4246C25.3232 12.2346 25.6578 12.1332 26 12.1332C26.3422 12.1332 26.6768 12.2346 26.9615 12.4246L37.3615 19.3579C37.5989 19.5161 37.7936 19.7306 37.9283 19.9822C38.063 20.2338 38.1334 20.5147 38.1333 20.8001V31.2001C38.1334 31.4854 38.063 31.7664 37.9283 32.018C37.7936 32.2696 37.5989 32.484 37.3615 32.6423L26.9947 39.5536C26.8426 39.66 26.6745 39.7414 26.4966 39.7944H26.4953C26.4203 39.8168 26.3438 39.8341 26.2664 39.8464H26.2643C25.8536 39.9099 25.4338 39.8237 25.0813 39.6035L25.0305 39.5705L14.6385 32.6423C14.4011 32.484 14.2064 32.2696 14.0717 32.018C13.9371 31.7664 13.8666 31.4854 13.8667 31.2001V20.8001C13.8667 20.4863 13.9518 20.1785 14.1131 19.9094C14.2743 19.6402 14.5055 19.4199 14.7821 19.2719C15.0587 19.1238 15.3703 19.0537 15.6837 19.0688C15.9971 19.084 16.3004 19.1839 16.5615 19.3579ZM17.3333 30.2725L24.2667 34.8948V28.661L17.3333 24.0386V30.2725Z" fill="#2492FF"/>
<path d="M50.034 35.9427C51.3363 32.7899 52.0044 29.4113 52 26.0001C52.012 20.2635 50.1225 14.6847 46.6271 10.1361C43.1316 5.58751 38.2272 2.3256 32.6809 0.860482C27.1346 -0.604632 21.2591 -0.190329 15.9732 2.0386C10.6874 4.26753 6.28926 8.1854 3.46667 13.1795V9.44284C3.46667 8.98313 3.28405 8.54225 2.95899 8.21718C2.63392 7.89212 2.19304 7.7095 1.73333 7.7095C1.27362 7.7095 0.832745 7.89212 0.507682 8.21718C0.182619 8.54225 0 8.98313 0 9.44284V17.7215C0 18.1812 0.182619 18.622 0.507682 18.9471C0.832745 19.2722 1.27362 19.4548 1.73333 19.4548H9.51981C9.97952 19.4548 10.4204 19.2722 10.7455 18.9471C11.0705 18.622 11.2531 18.1812 11.2531 17.7215C11.2531 17.2617 11.0705 16.8209 10.7455 16.4958C10.4204 16.1707 9.97952 15.9881 9.51981 15.9881H5.89559C8.34591 11.0396 12.5297 7.16434 17.6511 5.09957C22.7725 3.0348 28.4742 2.92457 33.6716 4.78983C38.869 6.65509 43.1995 10.3657 45.8393 15.2158C48.4791 20.066 49.244 25.7172 47.9885 31.0946C46.733 36.4719 43.5448 41.2002 39.0302 44.38C34.5157 47.5598 28.9898 48.9692 23.5038 48.3402C18.0178 47.7111 12.9543 45.0875 9.27669 40.9684C5.59905 36.8493 3.56379 31.522 3.55806 26.0001C3.55806 25.5404 3.37544 25.0995 3.05038 24.7744C2.72531 24.4494 2.28443 24.2667 1.82472 24.2667C1.36501 24.2667 0.924135 24.4494 0.599072 24.7744C0.274009 25.0995 0.09139 25.5404 0.09139 26.0001C0.0869823 29.4113 0.755058 32.7899 2.05741 35.9427C3.35976 39.0955 5.27084 41.9606 7.68136 44.3742C10.0919 46.7879 12.9546 48.7026 16.1057 50.0091C19.2568 51.3155 22.6345 51.9879 26.0457 51.9879C29.4569 51.9879 32.8346 51.3155 35.9857 50.0091C39.1368 48.7026 41.9995 46.7879 44.41 44.3742C46.8205 41.9606 48.7316 39.0955 50.034 35.9427Z" fill="#2492FF"/>
</svg>
