<svg width="69" height="58" viewBox="0 0 69 58" fill="none" xmlns="http://www.w3.org/2000/svg">
<rect x="5.6" y="25.6" width="56.8" height="15.8" rx="7.9" stroke="#2492FF" stroke-width="3.2"/>
<path d="M27.0311 18C26.5959 18 26.2228 17.8065 25.9119 17.5486C23.3627 14.8402 23.3627 10.5841 25.9119 7.87568C27.2798 6.45699 27.2798 4.13549 25.9119 2.71679C25.2902 2.07193 25.2902 1.04016 25.9119 0.459781C26.5337 -0.120594 27.5285 -0.18508 28.0881 0.459781C30.6373 3.1682 30.6373 7.42428 28.0881 10.1327C26.7202 11.5514 26.7202 13.8729 28.0881 15.2916C28.7098 15.9364 28.7098 16.9682 28.0881 17.5486C27.8394 17.8065 27.4663 18 27.0311 18Z" fill="#2492FF"/>
<path d="M34.0311 18C33.5959 18 33.2228 17.8065 32.9119 17.5486C30.3627 14.8402 30.3627 10.5841 32.9119 7.87568C34.2798 6.45699 34.2798 4.13549 32.9119 2.71679C32.2902 2.07193 32.2902 1.04016 32.9119 0.459781C33.5337 -0.120594 34.5285 -0.18508 35.0881 0.459781C37.6373 3.1682 37.6373 7.42428 35.0881 10.1327C33.7202 11.5514 33.7202 13.8729 35.0881 15.2916C35.7098 15.9364 35.7098 16.9682 35.0881 17.5486C34.8394 17.8065 34.4663 18 34.0311 18Z" fill="#2492FF"/>
<path d="M41.0311 18C40.5959 18 40.2228 17.8065 39.9119 17.5486C37.3627 14.8402 37.3627 10.5841 39.9119 7.87568C41.2798 6.45699 41.2798 4.13549 39.9119 2.71679C39.2902 2.07193 39.2902 1.04016 39.9119 0.459781C40.5337 -0.120594 41.5285 -0.18508 42.0881 0.459781C44.6373 3.1682 44.6373 7.42428 42.0881 10.1327C40.7202 11.5514 40.7202 13.8729 42.0881 15.2916C42.7098 15.9364 42.7098 16.9682 42.0881 17.5486C41.8394 17.8065 41.4663 18 41.0311 18Z" fill="#2492FF"/>
<circle cx="13.5" cy="33.5" r="7.9" stroke="#2492FF" stroke-width="3.2"/>
<rect y="49" width="69" height="3" rx="1.5" fill="#2492FF"/>
<rect x="3" y="49" width="9" height="3" rx="1.5" transform="rotate(90 3 49)" fill="#2492FF"/>
<rect x="69" y="49" width="9" height="3" rx="1.5" transform="rotate(90 69 49)" fill="#2492FF"/>
</svg>
