<svg width="50" height="50" viewBox="0 0 50 50" fill="none" xmlns="http://www.w3.org/2000/svg">
<path d="M41.0714 0H8.92857C6.56057 0 4.28955 0.940686 2.61512 2.61512C0.940686 4.28955 0 6.56057 0 8.92857V41.0714C0 43.4394 0.940686 45.7104 2.61512 47.3849C4.28955 49.0593 6.56057 50 8.92857 50H41.0714C43.4394 50 45.7104 49.0593 47.3849 47.3849C49.0593 45.7104 50 43.4394 50 41.0714V8.92857C50 6.56057 49.0593 4.28955 47.3849 2.61512C45.7104 0.940686 43.4394 0 41.0714 0ZM46.4286 41.0714C46.4286 42.4922 45.8642 43.8548 44.8595 44.8595C43.8548 45.8642 42.4922 46.4286 41.0714 46.4286H8.92857C7.50777 46.4286 6.14516 45.8642 5.1405 44.8595C4.13584 43.8548 3.57143 42.4922 3.57143 41.0714V8.92857C3.57143 7.50777 4.13584 6.14516 5.1405 5.1405C6.14516 4.13584 7.50777 3.57143 8.92857 3.57143H41.0714C42.4922 3.57143 43.8548 4.13584 44.8595 5.1405C45.8642 6.14516 46.4286 7.50777 46.4286 8.92857V41.0714ZM42.4643 15.75C39.9824 12.8481 36.8993 10.5205 33.4286 8.92857C30.7622 7.78643 27.8917 7.19752 24.9911 7.19752C22.0904 7.19752 19.2199 7.78643 16.5536 8.92857C13.118 10.5522 10.0727 12.8971 7.625 15.8036C7.47836 15.9882 7.36972 16.2 7.30536 16.4268C7.241 16.6536 7.22218 16.8909 7.25 17.125C7.27618 17.358 7.348 17.5836 7.46136 17.7889C7.57473 17.9942 7.72742 18.1752 7.91071 18.3214L15.9464 24.6607C16.1397 24.8223 16.3669 24.9383 16.6111 25.0001C16.8553 25.0619 17.1103 25.068 17.3571 25.0179C17.6061 24.9747 17.8431 24.8791 18.0525 24.7375C18.2618 24.5959 18.4387 24.4115 18.5714 24.1964C19.2106 23.0377 20.1383 22.0638 21.2646 21.3693C22.391 20.6747 23.6777 20.283 25 20.2321C26.3324 20.2623 27.634 20.6387 28.7768 21.3244C29.9196 22.0101 30.8642 22.9814 31.5179 24.1429C31.6506 24.3579 31.8275 24.5423 32.0368 24.6839C32.2461 24.8255 32.4831 24.9211 32.7321 24.9643C32.8325 24.9827 32.9354 24.9827 33.0357 24.9643C33.4385 24.9619 33.8287 24.8235 34.1429 24.5714L42.1786 18.2321C42.3619 18.0859 42.5146 17.9049 42.6279 17.6996C42.7413 17.4944 42.8131 17.2688 42.8393 17.0357C42.8858 16.5747 42.7514 16.1137 42.4643 15.75ZM33.375 20.6607C31.7017 18.6452 29.3661 17.2907 26.7857 16.8393V14.2857C26.7857 13.8121 26.5976 13.3579 26.2627 13.023C25.9278 12.6881 25.4736 12.5 25 12.5C24.5264 12.5 24.0722 12.6881 23.7373 13.023C23.4024 13.3579 23.2143 13.8121 23.2143 14.2857V16.8393C20.6339 17.2907 18.2983 18.6452 16.625 20.6607L11.5357 16.6429C13.4095 14.7876 15.5905 13.2711 17.9821 12.1607C20.2004 11.2127 22.5877 10.7239 25 10.7239C27.4123 10.7239 29.7996 11.2127 32.0179 12.1607C34.4095 13.2711 36.5905 14.7876 38.4643 16.6429L33.375 20.6607Z" fill="#2492FF"/>
</svg>
